<svg xmlns="http://www.w3.org/2000/svg" xmlns:xlink="http://www.w3.org/1999/xlink" id="Capa_2" data-name="Capa 2" viewBox="0 0 341.97 325.77"><defs><style>      .cls-1 {        fill: url(#linear-gradient-7);      }      .cls-2 {        fill: url(#linear-gradient-5);      }      .cls-3 {        fill: url(#linear-gradient-6);      }      .cls-4 {        fill: url(#linear-gradient-4);      }      .cls-5 {        fill: url(#linear-gradient-3);      }      .cls-6 {        fill: url(#linear-gradient-2);      }      .cls-7 {        fill: #a02342;      }      .cls-8 {        fill: url(#linear-gradient);      }    </style><linearGradient id="linear-gradient" x1="136.75" y1="155.15" x2="168.03" y2="155.15" gradientUnits="userSpaceOnUse"><stop offset="0" stop-color="#d44e78"></stop><stop offset="1" stop-color="#e56b34"></stop></linearGradient><linearGradient id="linear-gradient-2" x1="116.59" y1="111.79" x2="186.72" y2="111.79" xlink:href="#linear-gradient"></linearGradient><linearGradient id="linear-gradient-3" x1="83.94" y1="73.42" x2="219.38" y2="73.42" xlink:href="#linear-gradient"></linearGradient><linearGradient id="linear-gradient-4" x1="50.59" y1="34.4" x2="252.94" y2="34.4" xlink:href="#linear-gradient"></linearGradient><linearGradient id="linear-gradient-5" x1="83.94" y1="73.42" x2="219.38" y2="73.42" xlink:href="#linear-gradient"></linearGradient><linearGradient id="linear-gradient-6" x1="50.59" y1="34.4" x2="252.94" y2="34.4" xlink:href="#linear-gradient"></linearGradient><linearGradient id="linear-gradient-7" x1="116.59" y1="111.79" x2="186.72" y2="111.79" xlink:href="#linear-gradient"></linearGradient></defs><g id="Layer_1" data-name="Layer 1"><path class="cls-7" d="M139.54,178.09c2.94,2.75,4.45,3.52,5.82,4.08,1.45.6,2.73.97,4.24,1.16s3.24.2,4.92-.04c1.68-.24,3.3-.74,4.64-1.3,1.34-.56,2.39-1.17,3.68-2.06,1.3-.88,2.84-2.04,4-3.51,1.16-1.48,1.95-3.28,3.43-4.06,1.48-.79,3.65-.56,5.57-.47,1.93.09,3.61.05,5.35.14,1.73.08,3.52.29,5.21.6,1.7.3,3.3.7,4.95,1.09,1.64.39,3.33.76,4.95,1.29,1.63.53,3.21,1.23,4.78,1.97,1.58.74,3.16,1.52,4.6,2.44,1.44.91,2.76,1.96,4.06,3.04,1.3,1.08,2.6,2.2,3.8,3.37,1.2,1.18,2.31,2.41,3.29,3.81.98,1.4,1.84,2.96,2.6,4.53.76,1.57,1.43,3.15,1.94,4.8.51,1.64.87,3.35,1.04,5.03.18,1.68.17,3.32.16,5.15,0,1.83-.01,3.83-1,4.93-.99,1.09-2.95,1.27-4.76,1.36-1.81.08-3.45.07-5.15.08s-3.45.04-5.15,0c-1.7-.03-3.35-.13-5.15-.07-1.81.06-3.77.28-5.15-.53-1.37-.81-2.15-2.66-3.01-4.25-.86-1.59-1.8-2.92-3.03-4.03s-2.75-1.98-4.31-2.73c-1.56-.76-3.17-1.39-4.85-1.68-1.68-.29-3.42-.23-5.15-.22-1.73.01-3.44-.01-5.15.11-1.72.12-3.44.4-5.04.97-1.6.57-3.08,1.42-4.54,2.39-1.46.97-2.89,2.05-3.88,3.39-.99,1.34-1.53,2.95-1.78,4.64-.25,1.69-.19,3.46.17,5.15.37,1.69,1.05,3.29,2.1,4.63,1.05,1.33,2.47,2.39,3.96,3.27,1.49.88,3.05,1.58,4.63,2.25,1.58.67,3.18,1.32,4.81,1.85,1.63.53,3.3.94,4.96,1.39,1.66.45,3.31.94,4.95,1.45s3.28,1.03,4.92,1.55c1.64.51,3.28,1.01,4.93,1.51,1.64.5,3.29,1,4.92,1.52,1.64.52,3.27,1.07,4.86,1.72,1.59.65,3.14,1.4,4.7,2.12,1.56.73,3.13,1.43,4.65,2.22,1.53.79,3.01,1.66,4.41,2.66,6.76,6.11,8.83,9.22,10.18,11.82,1.35,2.6,1.98,4.69,2.62,7.29.64,2.6,1.29,5.72,1.48,9.26.19,3.54-.08,7.5-.59,10.92-.51,3.42-1.27,6.32-2.71,9.86-1.43,3.55-3.54,7.75-6.1,11-2.55,3.25-5.55,5.55-8.49,7.61-2.94,2.07-5.81,3.9-8.95,5.48-3.14,1.58-6.56,2.9-10.26,3.81-3.69.91-7.67,1.4-11.52,1.68-3.85.28-7.58.36-11.34.06-3.76-.3-7.55-.98-10.51-1.67-2.96-.69-5.09-1.4-6.9-1.99-1.82-.59-3.33-1.05-5.26-1.97-1.93-.92-4.27-2.31-6.46-3.66-2.19-1.35-4.23-2.65-6.19-4.33s-3.86-3.74-5.45-5.73c-1.59-1.99-2.88-3.9-4.01-6.3-1.13-2.4-2.1-5.28-2.72-7.71-.61-2.44-.86-4.44-.96-6.08-.1-1.65-.04-2.94.42-4.36.47-1.42,1.35-2.97,4.46-4.19,22.39-.15,23.26,0,23.87.26s.94.65,1.18,1.26c.25.61.41,1.43.78,2.58.38,1.14.97,2.61,1.5,3.8s1,2.13,1.58,2.96c.57.83,1.25,1.55,2.02,2.33.77.78,1.63,1.63,2.65,2.39,1.02.75,2.2,1.41,3.58,1.96,1.38.55,2.95,1,4.35,1.28,1.4.27,2.62.37,4.68.5,2.06.12,4.96.27,7.49.01,2.53-.26,4.69-.93,6.67-1.76,1.97-.83,3.76-1.81,5.09-2.91,1.33-1.1,2.19-2.31,2.96-3.54.77-1.23,1.44-2.47,1.83-3.73.38-1.25.48-2.51.52-4.23.04-1.72.01-3.89-.92-6.03-.93-2.14-2.75-4.24-4.4-5.59-1.65-1.35-3.12-1.96-5.71-2.93-2.58-.97-6.27-2.32-10.78-3.69-4.51-1.37-9.84-2.78-13.47-3.86-3.63-1.09-5.55-1.85-7.7-2.73-2.15-.87-4.54-1.85-7-2.97-2.46-1.11-4.99-2.35-9.94-6.18-5.06-4.61-6.79-7.39-8.29-10.52-1.5-3.13-2.79-6.63-3.13-11.1-.36-4.7.3-10.48.81-23.09-8.83,14.32-22.88,36.31-30.52,48.26-8.7,13.61-9.09,14.21-9.33,14.76-.23.55-.31,1.05-.34,9.58-.04,8.54-.04,25.11-.08,33.58-.04,8.47-.13,8.84-.25,9.23-.13.39-.3.81-.54,1.19-.24.38-.54.72-.87,1.05-.33.33-.67.65-1.02.91-.35.26-.7.45-1.39.58-.7.13-1.74.19-9.84.19-11.17,0-12.21-.07-12.91-.19-.7-.13-1.04-.32-1.39-.58-.35-.26-.7-.58-1.02-.91-.33-.33-.63-.67-.87-1.05-.24-.38-.41-.8-.54-1.19-.13-.39-.21-.76-.25-9.23-.04-8.47-.04-25.04-.08-33.58-.04-8.54-.11-9.03-.34-9.58-.23-.55-.63-1.15-9.39-15.01-8.76-13.86-25.89-40.97-34.68-54.84C1,181.37.56,180.75.32,180.27s-.28-.81-.3-1.77c-.02-.96-.02-2.55.03-3.49.05-.94.15-1.23.36-1.51.21-.28.54-.55.98-.77.44-.22,1.01-.4,6.21-.49,5.2-.09,15.04-.09,20.41.03,5.37.12,6.26.37,6.96.68.69.31,1.19.69,1.69,1.11s1.02.88,1.58,1.49c.56.6,1.17,1.35,6.27,10.12,5.1,8.77,14.71,25.57,19.64,34.31,4.93,8.74,5.2,9.43,6.14,9.41.94.03,1.21-.66,6.14-9.41,4.93-8.74,14.53-25.54,19.64-34.31,5.1-8.77,5.71-9.51,6.27-10.12.56-.6,1.08-1.07,1.58-1.49s.99-.8,1.69-1.11c.69-.31,1.59-.56,5.63-.68,4.04-.12,11.22-.12,15.39.07,4.17.19,5.32.57,6.49,1.17,1.17.6,2.36,1.41,3.39,2.15,1.03.74,1.91,1.4,2.56,1.97.18.16.35.31.49.46Z"></path><circle class="cls-8" cx="152.39" cy="155.15" r="15.64"></circle><path class="cls-6" d="M151.66,93.98c3.86,0,7.72.27,11.43,1.21,3.71.94,7.27,2.56,10.54,4.57,3.28,2.01,6.28,4.42,8.73,7.44,2.46,3.02,4.37,6.64,4.36,10.41,0,3.77-1.93,7.69-5.08,9.91-3.16,2.22-7.55,2.74-10.86,1.19-3.31-1.55-5.53-5.16-8.53-7.69-3.01-2.53-6.8-3.98-10.59-3.98s-7.58,1.45-10.59,3.98c-3.01,2.53-5.23,6.15-8.53,7.69-3.31,1.55-7.7,1.03-10.86-1.19-3.16-2.22-5.08-6.14-5.08-9.91,0-3.77,1.91-7.4,4.36-10.41,2.46-3.02,5.46-5.42,8.73-7.44,3.28-2.01,6.84-3.63,10.54-4.57,3.71-.94,7.57-1.21,11.43-1.21Z"></path><path class="cls-5" d="M151.66,47.77c2.51,0,5.03.07,7.53.27,2.5.2,5,.54,7.48.96,2.48.42,4.95.91,7.37,1.59,2.42.68,4.78,1.54,7.11,2.5,2.33.96,4.61,2,6.86,3.12,2.25,1.11,4.48,2.29,6.67,3.5,2.2,1.22,4.37,2.48,6.47,3.87,2.1,1.38,4.12,2.89,6.05,4.49,1.93,1.6,3.77,3.31,5.55,5.1,1.78,1.79,3.51,3.66,4.72,5.84,1.2,2.18,1.87,4.68,1.92,7.22.04,2.54-.54,5.11-1.88,7.19-1.34,2.08-3.44,3.66-5.8,4.63s-5,1.32-7.4.77c-2.4-.55-4.56-2-6.43-3.71s-3.45-3.66-5.2-5.46c-1.75-1.8-3.67-3.44-5.71-4.91s-4.21-2.76-6.44-3.9c-2.24-1.14-4.55-2.13-6.89-3.05s-4.7-1.76-7.11-2.51c-2.4-.75-4.85-1.41-7.33-1.74-2.48-.33-5-.32-7.52-.32s-5.04,0-7.52.32c-2.48.33-4.92.99-7.33,1.74-2.4.75-4.77,1.59-7.11,2.51-2.34.92-4.65,1.91-6.89,3.05-2.24,1.14-4.4,2.43-6.44,3.9s-3.96,3.11-5.71,4.91c-1.75,1.8-3.33,3.75-5.2,5.46s-4.03,3.16-6.43,3.71c-2.4.55-5.03.19-7.4-.77s-4.46-2.55-5.8-4.63c-1.34-2.08-1.92-4.65-1.88-7.19.04-2.54.71-5.04,1.92-7.22,1.2-2.18,2.93-4.05,4.72-5.84,1.78-1.79,3.62-3.49,5.55-5.1,1.93-1.6,3.95-3.11,6.05-4.49s4.27-2.65,6.47-3.87c2.2-1.22,4.42-2.39,6.67-3.5,2.25-1.11,4.54-2.16,6.86-3.12,2.33-.96,4.69-1.82,7.11-2.5,2.42-.68,4.89-1.17,7.37-1.59,2.48-.42,4.97-.75,7.48-.96,2.5-.2,5.02-.27,7.53-.27Z"></path><path class="cls-4" d="M151.55.01c4.04-.02,8.08-.05,12.11.23,4.02.28,8.02.88,11.98,1.67,3.96.79,7.88,1.77,11.75,2.94,3.87,1.16,7.68,2.51,11.4,4.07,3.72,1.55,7.36,3.32,10.93,5.2,3.57,1.88,7.08,3.89,10.51,6.01s6.78,4.38,10.01,6.8c3.24,2.42,6.36,5.02,9.33,7.71,2.98,2.69,5.81,5.46,8.38,8.72,2.58,3.25,4.9,6.99,4.97,10.82.07,3.83-2.1,7.75-5.34,10.42-3.24,2.67-7.55,4.08-11.29,3.35-3.75-.74-6.94-3.63-9.85-6.56-2.92-2.93-5.56-5.89-8.52-8.59-2.95-2.7-6.22-5.13-9.54-7.45-3.32-2.32-6.71-4.51-10.25-6.44-3.54-1.93-7.23-3.59-11-5.04-3.77-1.46-7.61-2.71-11.51-3.74-3.9-1.03-7.87-1.85-11.88-2.31-4.01-.46-8.05-.56-12.09-.54-4.04.02-8.09.15-12.09.64-4,.49-7.96,1.33-11.86,2.4-3.9,1.06-7.73,2.35-11.48,3.83-3.76,1.49-7.44,3.17-10.96,5.13-3.52,1.96-6.89,4.18-10.2,6.52-3.31,2.34-6.55,4.8-9.49,7.52-2.93,2.72-5.55,5.71-8.45,8.66-2.89,2.95-6.06,5.87-9.8,6.64-3.74.77-8.06-.61-11.32-3.26-3.26-2.64-5.47-6.55-5.42-10.38.04-3.83,2.34-7.58,4.89-10.85,2.55-3.27,5.36-6.07,8.32-8.78,2.96-2.71,6.06-5.33,9.27-7.78s6.55-4.72,9.96-6.88c3.41-2.15,6.91-4.18,10.46-6.09,3.56-1.91,7.18-3.7,10.89-5.28,3.71-1.58,7.51-2.96,11.37-4.15,3.86-1.19,7.77-2.21,11.72-3.03,3.95-.82,7.95-1.45,11.97-1.76,4.02-.31,8.06-.3,12.1-.32Z"></path><g><path class="cls-7" d="M237.34,200.03c-.04-23.83-.13-24.39.07-24.9.2-.51.7-.97,1.2-1.4.5-.43,1.02-.84,1.53-1.1s1.03-.37,9.72-.43c8.69-.06,25.56-.06,35.02.01,9.47.07,11.54.2,13.42.53,1.88.33,3.58.86,5.12,1.28,1.53.41,2.9.71,4.74,1.34,1.83.63,4.12,1.6,6.09,2.6,1.97,1,3.6,2.03,5.08,3.04,1.47,1.01,2.78,1.99,4.17,3.21,1.38,1.22,2.84,2.68,4.18,4.35s2.56,3.55,3.72,5.76c1.15,2.22,2.23,4.77,2.91,6.64.68,1.87.96,3.05,1.2,4.31s.43,2.6.56,4.23c.12,1.62.17,3.52.12,5.37-.05,1.85-.19,3.65-.68,5.93s-1.32,5.02-1.92,6.81-.97,2.64-1.44,3.53-1.06,1.83-1.82,2.75c-.77.92-1.72,1.82-2.84,2.78-1.12.95-2.4,1.95-3.62,2.72s-2.39,1.3-3.42,1.7c-1.03.4-1.93.67-2.46.91-.53.24-.7.46-.68.66.02.2.22.4.88.62.66.22,1.78.45,3.1.98,1.32.52,2.85,1.33,4.32,2.25s2.89,1.94,4.33,3.11c1.43,1.17,2.88,2.5,4.15,4.11,1.27,1.61,2.36,3.51,3.32,5.43.97,1.92,1.82,3.87,2.44,5.49.63,1.61,1.03,2.89,1.33,4.21.29,1.32.48,2.67.62,4.77.14,2.1.23,4.96.15,7.56-.08,2.6-.33,4.95-.63,6.76-.3,1.81-.64,3.08-1.21,4.67-.57,1.59-1.35,3.49-2.41,5.59-1.06,2.1-2.38,4.39-3.96,6.5-1.57,2.1-3.4,4.01-5.58,5.81-2.18,1.8-4.73,3.5-7.33,4.86-2.61,1.37-5.27,2.41-8.14,3.37-2.87.96-5.94,1.84-8.79,2.41s-5.5.84-10.08.98c-4.58.13-11.09.13-20.09.13h-26.6c-6.09,0-6.79,0-7.22-.1-.44-.1-.62-.3-.89-.63s-.64-.78-.9-1.08-.42-.47-.52-.84c-.1-.38-.15-.97-.17-24.82-.02-23.85-.02-70.94-.07-94.77ZM266.49,288.09c0,5.76.01,5.84.01,5.94s0,.22.05.28.15.06,4.2.06,12.06,0,16.93-.02c4.87-.02,6.59-.05,8.16-.32,1.57-.27,2.98-.76,4.28-1.36,1.31-.6,2.51-1.3,3.74-2.27,1.23-.97,2.47-2.2,3.58-3.78s2.08-3.5,2.56-5.48.48-4.01.35-5.79c-.13-1.78-.4-3.32-.94-4.86-.54-1.53-1.35-3.06-2.18-4.27-.83-1.21-1.68-2.12-2.62-2.95s-1.96-1.59-3.68-2.34c-1.71-.75-4.12-1.5-5.94-1.93-1.82-.43-3.07-.55-7.66-.6-4.59-.06-12.52-.06-16.56-.05-4.03,0-4.17.01-4.23.12-.07.1-.07.3-.07.48s-.01.33-.01,6.13c0,5.8,0,17.25,0,23.01ZM266.7,227.3c0,5.02,0,5.09.01,5.18,0,.09,0,.19.05.24.04.05.13.05,3.66.05s10.51,0,14.58-.05c4.07-.05,5.23-.16,6.4-.39s2.36-.59,3.45-1.08c1.09-.49,2.09-1.1,3.2-1.94,1.11-.84,2.33-1.92,3.42-3.29,1.09-1.38,2.05-3.05,2.54-4.71.48-1.66.48-3.3.46-4.85-.02-1.55-.07-3.03-.44-4.43-.38-1.4-1.08-2.73-1.8-3.79-.72-1.06-1.46-1.84-2.28-2.57-.82-.72-1.71-1.38-3.2-2.04-1.49-.66-3.59-1.31-5.18-1.68-1.59-.38-2.67-.48-6.67-.53-4-.05-10.91-.05-14.43-.05-3.51,0-3.63.01-3.69.1-.06.09-.06.26-.06.42,0,.15,0,.29-.01,5.34,0,5.06,0,15.03,0,20.05Z"></path><path class="cls-7" d="M139.54,178.09c-.14-.15-.3-.3-.49-.46-.65-.56-1.53-1.23-2.56-1.97-1.03-.74-2.22-1.55-3.39-2.15-1.17-.6-2.32-.98-6.49-1.17-4.17-.19-11.35-.19-15.39-.07-4.04.12-4.94.37-5.63.68-.69.31-1.19.69-1.69,1.11s-1.02.88-1.58,1.49c-.56.6-1.17,1.35-6.27,10.12-5.1,8.77-14.71,25.57-19.64,34.31-4.93,8.74-5.2,9.43-6.14,9.41-.94.03-1.21-.66-6.14-9.41-4.93-8.74-14.53-25.54-19.64-34.31-5.1-8.77-5.71-9.51-6.27-10.12-.56-.6-1.08-1.07-1.58-1.49s-.99-.8-1.69-1.11c-.69-.31-1.59-.56-6.96-.68-5.37-.12-15.21-.12-20.41-.03-5.2.09-5.76.27-6.21.49-.44.22-.77.49-.98.77-.21.28-.31.57-.36,1.51-.05.94-.05,2.53-.03,3.49.02.96.06,1.3.3,1.77s.68,1.1,9.46,14.97c8.78,13.87,25.91,40.98,34.68,54.84,8.76,13.86,9.15,14.46,9.39,15.01.23.55.31,1.05.34,9.58.04,8.54.04,25.11.08,33.58.04,8.47.13,8.84.25,9.23.13.39.3.81.54,1.19.24.38.54.72.87,1.05.33.33.67.65,1.02.91.35.26.7.45,1.39.58.7.13,1.74.19,12.91.19,8.1,0,9.14-.07,9.84-.19.7-.13,1.04-.32,1.39-.58.35-.26.7-.58,1.02-.91.33-.33.63-.67.87-1.05.24-.38.41-.8.54-1.19.13-.39.21-.76.25-9.23.04-8.47.04-25.04.08-33.58.04-8.54.11-9.03.34-9.58.23-.55.63-1.15,9.33-14.76,7.64-11.95,21.69-33.94,30.52-48.26-.51,12.61-1.18,18.39-.81,23.09.35,4.48,1.63,7.97,3.13,11.1,1.5,3.13,3.22,5.91,8.29,10.52,4.95,3.83,7.48,5.07,9.94,6.18,2.46,1.11,4.84,2.09,7,2.97,2.15.87,4.07,1.64,7.7,2.73,3.63,1.09,8.96,2.49,13.47,3.86,4.51,1.37,8.2,2.72,10.78,3.69,2.58.97,4.06,1.58,5.71,2.93,1.65,1.35,3.47,3.45,4.4,5.59.93,2.14.95,4.31.92,6.03-.04,1.72-.13,2.98-.52,4.23-.38,1.25-1.06,2.5-1.83,3.73s-1.64,2.44-2.96,3.54c-1.33,1.1-3.11,2.08-5.09,2.91-1.97.83-4.14,1.5-6.67,1.76-2.53.26-5.43.11-7.49-.01-2.06-.12-3.28-.22-4.68-.5-1.4-.27-2.97-.72-4.35-1.28-1.38-.55-2.56-1.21-3.58-1.96-1.02-.75-1.88-1.6-2.65-2.39-.77-.78-1.45-1.5-2.02-2.33-.58-.83-1.05-1.76-1.58-2.96s-1.12-2.66-1.5-3.8c-.38-1.14-.54-1.97-.78-2.58-.25-.61-.58-.99-1.18-1.26s-1.47-.41-23.87-.26c-3.11,1.22-3.99,2.76-4.46,4.19-.47,1.42-.52,2.71-.42,4.36.1,1.65.35,3.65.96,6.08.61,2.44,1.59,5.32,2.72,7.71,1.13,2.4,2.42,4.31,4.01,6.3,1.59,1.99,3.48,4.04,5.45,5.73s4,2.98,6.19,4.33c2.19,1.35,4.53,2.73,6.46,3.66,1.93.92,3.44,1.39,5.26,1.97,1.82.59,3.95,1.29,6.9,1.99,2.96.69,6.75,1.37,10.51,1.67,3.76.3,7.49.22,11.34-.06,3.85-.28,7.82-.77,11.52-1.68,3.69-.91,7.11-2.23,10.26-3.81,3.14-1.58,6.02-3.41,8.95-5.48,2.94-2.07,5.94-4.37,8.49-7.61s4.66-7.45,6.1-11c1.43-3.55,2.2-6.44,2.71-9.86.51-3.42.78-7.38.59-10.92-.19-3.54-.84-6.66-1.48-9.26s-1.27-4.69-2.62-7.29c-1.35-2.6-3.42-5.71-10.18-11.82-1.4-1-2.88-1.88-4.41-2.66-1.53-.79-3.09-1.49-4.65-2.22-1.56-.73-3.11-1.47-4.7-2.12-1.59-.65-3.22-1.2-4.86-1.72-1.64-.52-3.28-1.02-4.92-1.52-1.64-.5-3.29-1-4.93-1.51-1.64-.51-3.28-1.04-4.92-1.55s-3.29-1-4.95-1.45c-1.66-.45-3.33-.86-4.96-1.39-1.63-.53-3.23-1.17-4.81-1.85-1.58-.67-3.14-1.37-4.63-2.25-1.49-.88-2.91-1.94-3.96-3.27-1.05-1.33-1.73-2.94-2.1-4.63-.37-1.69-.42-3.46-.17-5.15.25-1.69.79-3.3,1.78-4.64.99-1.34,2.42-2.42,3.88-3.39,1.46-.97,2.94-1.83,4.54-2.39,1.6-.57,3.32-.85,5.04-.97,1.72-.12,3.43-.1,5.15-.11,1.73-.01,3.47-.07,5.15.22,1.68.29,3.29.93,4.85,1.68,1.56.76,3.08,1.63,4.31,2.73s2.17,2.44,3.03,4.03c.86,1.59,1.64,3.44,3.01,4.25,1.37.81,3.34.59,5.15.53,1.81-.06,3.45.03,5.15.07,1.7.03,3.45,0,5.15,0s3.35,0,5.15-.08c1.81-.08,3.77-.26,4.76-1.36.99-1.09.99-3.1,1-4.93,0-1.83.01-3.47-.16-5.15-.18-1.68-.53-3.39-1.04-5.03-.51-1.64-1.18-3.22-1.94-4.8-.76-1.57-1.62-3.14-2.6-4.53-.98-1.4-2.09-2.63-3.29-3.81-1.2-1.18-2.5-2.29-3.8-3.37-1.3-1.08-2.62-2.13-4.06-3.04-1.44-.91-3.02-1.7-4.6-2.44-1.58-.74-3.15-1.43-4.78-1.97-1.63-.53-3.31-.9-4.95-1.29-1.64-.39-3.25-.78-4.95-1.09-1.7-.3-3.48-.52-5.21-.6-1.73-.08-3.42-.04-5.35-.14-1.93-.09-4.1-.32-5.57.47-1.48.79-2.26,2.59-3.43,4.06-1.16,1.48-2.71,2.63-4,3.51-1.3.88-2.35,1.5-3.68,2.06-1.34.56-2.96,1.06-4.64,1.3-1.68.24-3.41.23-4.92.04s-2.8-.56-4.24-1.16c-1.45-.6-3.05-1.42-6.31-4.55"></path><path class="cls-2" d="M151.66,47.77c-2.51,0-5.03.07-7.53.27-2.5.2-5,.54-7.48.96-2.48.42-4.95.91-7.37,1.59-2.42.68-4.78,1.54-7.11,2.5-2.33.96-4.61,2-6.86,3.12-2.25,1.11-4.48,2.29-6.67,3.5-2.2,1.22-4.37,2.48-6.47,3.87s-4.12,2.89-6.05,4.49c-1.93,1.6-3.77,3.31-5.55,5.1-1.78,1.79-3.51,3.66-4.72,5.84-1.2,2.18-1.87,4.68-1.92,7.22-.04,2.54.54,5.11,1.88,7.19,1.34,2.08,3.44,3.66,5.8,4.63s5,1.32,7.4.77c2.4-.55,4.56-2,6.43-3.71s3.45-3.66,5.2-5.46c1.75-1.8,3.67-3.44,5.71-4.91s4.21-2.76,6.44-3.9c2.24-1.14,4.55-2.13,6.89-3.05,2.34-.92,4.7-1.76,7.11-2.51,2.4-.75,4.85-1.41,7.33-1.74,2.48-.33,5-.32,7.52-.32s5.04,0,7.52.32c2.48.33,4.92.99,7.33,1.74,2.4.75,4.77,1.59,7.11,2.51s4.65,1.91,6.89,3.05c2.24,1.14,4.4,2.43,6.44,3.9s3.96,3.11,5.71,4.91c1.75,1.8,3.33,3.75,5.2,5.46s4.03,3.16,6.43,3.71c2.4.55,5.03.19,7.4-.77s4.46-2.55,5.8-4.63c1.34-2.08,1.92-4.65,1.88-7.19-.04-2.54-.71-5.04-1.92-7.22-1.2-2.18-2.93-4.05-4.72-5.84-1.78-1.79-3.62-3.49-5.55-5.1-1.93-1.6-3.95-3.11-6.05-4.49-2.1-1.38-4.27-2.65-6.47-3.87-2.2-1.22-4.42-2.39-6.67-3.5-2.25-1.11-4.54-2.16-6.86-3.12-2.33-.96-4.69-1.82-7.11-2.5-2.42-.68-4.89-1.17-7.37-1.59-2.48-.42-4.97-.75-7.48-.96-2.5-.2-5.02-.27-7.53-.27Z"></path><path class="cls-3" d="M151.55.01c-4.04.02-8.08,0-12.1.32-4.02.31-8.02.94-11.97,1.76-3.95.82-7.87,1.83-11.72,3.03-3.86,1.19-7.66,2.57-11.37,4.15-3.71,1.58-7.33,3.37-10.89,5.28-3.56,1.91-7.05,3.94-10.46,6.09-3.41,2.15-6.75,4.43-9.96,6.88s-6.32,5.07-9.27,7.78c-2.96,2.71-5.77,5.51-8.32,8.78-2.55,3.27-4.85,7.03-4.89,10.85-.04,3.83,2.16,7.74,5.42,10.38,3.26,2.64,7.58,4.03,11.32,3.26,3.74-.77,6.91-3.69,9.8-6.64,2.89-2.95,5.52-5.94,8.45-8.66,2.93-2.72,6.18-5.18,9.49-7.52,3.31-2.34,6.67-4.56,10.2-6.52,3.52-1.96,7.21-3.64,10.96-5.13,3.76-1.49,7.59-2.77,11.48-3.83,3.9-1.06,7.86-1.91,11.86-2.4,4-.49,8.04-.62,12.09-.64,4.04-.02,8.09.09,12.09.54,4.01.46,7.97,1.27,11.88,2.31,3.9,1.03,7.74,2.29,11.51,3.74,3.77,1.46,7.46,3.12,11,5.04,3.54,1.93,6.92,4.12,10.25,6.44,3.32,2.32,6.59,4.75,9.54,7.45,2.95,2.7,5.6,5.66,8.52,8.59,2.92,2.93,6.11,5.82,9.85,6.56,3.75.74,8.05-.68,11.29-3.35,3.24-2.67,5.42-6.59,5.34-10.42-.07-3.83-2.4-7.56-4.97-10.82-2.58-3.25-5.41-6.03-8.38-8.72-2.98-2.69-6.1-5.29-9.33-7.71-3.24-2.42-6.59-4.67-10.01-6.8s-6.94-4.13-10.51-6.01c-3.57-1.88-7.21-3.64-10.93-5.2-3.72-1.55-7.54-2.9-11.4-4.07-3.87-1.16-7.78-2.15-11.75-2.94-3.96-.79-7.96-1.39-11.98-1.67-4.02-.28-8.06-.24-12.11-.23Z"></path><path class="cls-1" d="M151.66,93.98c-3.86,0-7.72.27-11.43,1.21-3.71.94-7.27,2.56-10.54,4.57-3.28,2.01-6.28,4.42-8.73,7.44-2.46,3.02-4.37,6.64-4.36,10.41,0,3.77,1.93,7.69,5.08,9.91,3.16,2.22,7.55,2.74,10.86,1.19,3.31-1.55,5.53-5.16,8.53-7.69,3.01-2.53,6.8-3.98,10.59-3.98s7.58,1.45,10.59,3.98c3.01,2.53,5.23,6.15,8.53,7.69,3.31,1.55,7.7,1.03,10.86-1.19,3.16-2.22,5.08-6.14,5.08-9.91,0-3.77-1.91-7.4-4.36-10.41-2.46-3.02-5.46-5.42-8.73-7.44-3.28-2.01-6.84-3.63-10.54-4.57-3.71-.94-7.57-1.21-11.43-1.21Z"></path><circle class="cls-8" cx="152.39" cy="155.15" r="15.64"></circle></g></g></svg>